<svg width="276" height="70" viewBox="0 0 276 70" fill="none" xmlns="http://www.w3.org/2000/svg">
<path d="M30.5535 5.23184H42.7861L61.4409 37.158H49.2083L30.5535 5.23184Z" fill="black"/>
<path d="M80.0945 5.23184H67.8618L49.207 37.158H61.4397L80.0945 5.23184Z" fill="#22C55E"/>
<path d="M61.7737 5.23184H49.541L40.0333 21.5019H52.2659L61.7737 5.23184Z" fill="#E84D8A"/>
<path d="M45.8455 0H33.6128L30.5508 5.23338H42.7835L45.8455 0Z" fill="#33BFFF"/>
<path d="M90.9592 34.5348V10.2077H98.2921V13.7255C99.0187 12.4703 100.01 11.4959 101.265 10.8022C102.553 10.0756 104.039 9.71222 105.724 9.71222C107.442 9.71222 108.895 10.0921 110.084 10.8518C111.306 11.6115 112.231 12.7676 112.859 14.32C113.618 12.8667 114.708 11.7436 116.129 10.9509C117.582 10.1251 119.184 9.71222 120.935 9.71222C123.709 9.71222 125.774 10.5545 127.128 12.2391C128.482 13.8906 129.159 16.4505 129.159 19.9187V34.5348H121.678V20.1664C121.678 18.5479 121.414 17.3754 120.885 16.6487C120.39 15.889 119.531 15.5091 118.309 15.5091C116.888 15.5091 115.782 16.0046 114.989 16.9955C114.196 17.9864 113.8 19.3902 113.8 21.2069V34.5348H106.319V20.1664C106.319 18.5479 106.054 17.3754 105.526 16.6487C104.997 15.889 104.138 15.5091 102.949 15.5091C101.529 15.5091 100.423 16.0046 99.6298 16.9955C98.8371 17.9864 98.4407 19.3902 98.4407 21.2069V34.5348H90.9592Z" fill="#003F7D"/>
<path d="M146.831 35.0798C144.222 35.0798 141.942 34.5679 139.994 33.5439C138.078 32.4869 136.591 31.017 135.534 29.1343C134.477 27.2185 133.949 24.9559 133.949 22.3465C133.949 19.7701 134.477 17.5405 135.534 15.6578C136.591 13.742 138.078 12.2721 139.994 11.2481C141.942 10.2242 144.222 9.71222 146.831 9.71222C149.44 9.71222 151.703 10.2242 153.619 11.2481C155.568 12.2721 157.071 13.742 158.128 15.6578C159.218 17.5405 159.763 19.7701 159.763 22.3465C159.763 24.9559 159.218 27.2185 158.128 29.1343C157.071 31.017 155.568 32.4869 153.619 33.5439C151.703 34.5679 149.44 35.0798 146.831 35.0798ZM146.831 29.4811C148.416 29.4811 149.705 28.9031 150.696 27.747C151.72 26.5909 152.232 24.7908 152.232 22.3465C152.232 19.9352 151.72 18.1681 150.696 17.045C149.705 15.889 148.416 15.3109 146.831 15.3109C145.246 15.3109 143.957 15.889 142.966 17.045C141.975 18.1681 141.48 19.9352 141.48 22.3465C141.48 24.7908 141.975 26.5909 142.966 27.747C143.957 28.9031 145.246 29.4811 146.831 29.4811Z" fill="#003F7D"/>
<path d="M164.562 34.5348V10.2077H171.895V13.775C172.721 12.4538 173.827 11.4463 175.214 10.7527C176.602 10.059 178.154 9.71222 179.872 9.71222C182.745 9.71222 184.892 10.5545 186.313 12.2391C187.733 13.8906 188.443 16.4505 188.443 19.9187V34.5348H180.962V20.2655C180.962 18.581 180.648 17.3754 180.02 16.6487C179.393 15.889 178.468 15.5091 177.246 15.5091C175.66 15.5091 174.389 16.0046 173.431 16.9955C172.506 17.9864 172.043 19.3077 172.043 20.9592V34.5348H164.562Z" fill="#003F7D"/>
<path d="M206.91 35.0798C204.037 35.0798 201.559 34.5679 199.478 33.5439C197.43 32.4869 195.845 31.017 194.722 29.1343C193.632 27.2185 193.087 24.9724 193.087 22.396C193.087 19.8857 193.615 17.6891 194.672 15.8064C195.762 13.8906 197.232 12.4042 199.082 11.3472C200.965 10.2572 203.128 9.71222 205.573 9.71222C209.107 9.71222 211.914 10.8353 213.995 13.0814C216.076 15.2944 217.117 18.3002 217.117 22.0987V23.9815H200.222C200.486 25.8973 201.179 27.3011 202.303 28.1929C203.459 29.0517 205.044 29.4811 207.059 29.4811C208.38 29.4811 209.718 29.2829 211.072 28.8866C212.426 28.4902 213.649 27.8791 214.739 27.0534L216.72 32.0575C215.498 32.9824 213.995 33.7256 212.212 34.2871C210.461 34.8156 208.694 35.0798 206.91 35.0798ZM205.87 14.6668C204.284 14.6668 202.996 15.1458 202.005 16.1037C201.047 17.0616 200.453 18.3993 200.222 20.1169H210.924C210.725 16.4835 209.041 14.6668 205.87 14.6668Z" fill="#003F7D"/>
<path d="M228.465 34.5348L217.862 10.2077H225.74L231.834 25.6661L238.126 10.2077H245.509L234.757 34.5348H228.465Z" fill="#003F7D"/>
<path d="M63.5313 64.4983C63.2513 64.4983 63.0363 64.4183 62.8863 64.2583C62.7363 64.0983 62.6613 63.8783 62.6613 63.5983V54.5833C62.6613 54.2933 62.7413 54.0733 62.9013 53.9233C63.0613 53.7633 63.2813 53.6833 63.5613 53.6833C63.8113 53.6833 64.0063 53.7333 64.1463 53.8333C64.2963 53.9233 64.4313 54.0833 64.5513 54.3133L68.2563 61.1683H67.7763L71.4813 54.3133C71.6013 54.0833 71.7313 53.9233 71.8713 53.8333C72.0113 53.7333 72.2063 53.6833 72.4563 53.6833C72.7363 53.6833 72.9513 53.7633 73.1013 53.9233C73.2513 54.0733 73.3263 54.2933 73.3263 54.5833V63.5983C73.3263 63.8783 73.2513 64.0983 73.1013 64.2583C72.9613 64.4183 72.7463 64.4983 72.4563 64.4983C72.1763 64.4983 71.9613 64.4183 71.8113 64.2583C71.6613 64.0983 71.5863 63.8783 71.5863 63.5983V56.6533H71.9163L68.7663 62.3983C68.6663 62.5683 68.5613 62.6933 68.4513 62.7733C68.3413 62.8533 68.1913 62.8933 68.0013 62.8933C67.8113 62.8933 67.6563 62.8533 67.5363 62.7733C67.4163 62.6833 67.3113 62.5583 67.2213 62.3983L64.0413 56.6383H64.4013V63.5983C64.4013 63.8783 64.3263 64.0983 64.1763 64.2583C64.0363 64.4183 63.8213 64.4983 63.5313 64.4983ZM78.8187 64.5283C78.0587 64.5283 77.3987 64.3733 76.8387 64.0633C76.2787 63.7533 75.8437 63.3133 75.5337 62.7433C75.2237 62.1633 75.0687 61.4833 75.0687 60.7033C75.0687 60.1133 75.1537 59.5883 75.3237 59.1283C75.5037 58.6583 75.7587 58.2583 76.0887 57.9283C76.4187 57.5883 76.8137 57.3333 77.2737 57.1633C77.7337 56.9833 78.2487 56.8933 78.8187 56.8933C79.5787 56.8933 80.2387 57.0483 80.7987 57.3583C81.3587 57.6683 81.7937 58.1083 82.1037 58.6783C82.4137 59.2483 82.5687 59.9233 82.5687 60.7033C82.5687 61.2933 82.4787 61.8233 82.2987 62.2933C82.1287 62.7633 81.8787 63.1683 81.5487 63.5083C81.2187 63.8383 80.8237 64.0933 80.3637 64.2733C79.9037 64.4433 79.3887 64.5283 78.8187 64.5283ZM78.8187 63.1033C79.1887 63.1033 79.5137 63.0133 79.7937 62.8333C80.0737 62.6533 80.2887 62.3883 80.4387 62.0383C80.5987 61.6783 80.6787 61.2333 80.6787 60.7033C80.6787 59.9033 80.5087 59.3083 80.1687 58.9183C79.8287 58.5183 79.3787 58.3183 78.8187 58.3183C78.4487 58.3183 78.1237 58.4083 77.8437 58.5883C77.5637 58.7583 77.3437 59.0233 77.1837 59.3833C77.0337 59.7333 76.9587 60.1733 76.9587 60.7033C76.9587 61.4933 77.1287 62.0933 77.4687 62.5033C77.8087 62.9033 78.2587 63.1033 78.8187 63.1033ZM85.0463 64.4983C84.7463 64.4983 84.5163 64.4183 84.3563 64.2583C84.1963 64.0883 84.1163 63.8483 84.1163 63.5383V57.8683C84.1163 57.5583 84.1963 57.3233 84.3563 57.1633C84.5163 57.0033 84.7413 56.9233 85.0313 56.9233C85.3213 56.9233 85.5463 57.0033 85.7063 57.1633C85.8663 57.3233 85.9463 57.5583 85.9463 57.8683V58.8883L85.7813 58.5133C86.0013 57.9833 86.3413 57.5833 86.8013 57.3133C87.2713 57.0333 87.8013 56.8933 88.3913 56.8933C88.9813 56.8933 89.4663 57.0033 89.8463 57.2233C90.2263 57.4433 90.5113 57.7783 90.7013 58.2283C90.8913 58.6683 90.9863 59.2283 90.9863 59.9083V63.5383C90.9863 63.8483 90.9063 64.0883 90.7463 64.2583C90.5863 64.4183 90.3563 64.4983 90.0563 64.4983C89.7563 64.4983 89.5213 64.4183 89.3513 64.2583C89.1913 64.0883 89.1113 63.8483 89.1113 63.5383V59.9983C89.1113 59.4283 89.0013 59.0133 88.7813 58.7533C88.5713 58.4933 88.2413 58.3633 87.7913 58.3633C87.2413 58.3633 86.8013 58.5383 86.4713 58.8883C86.1513 59.2283 85.9913 59.6833 85.9913 60.2533V63.5383C85.9913 64.1783 85.6763 64.4983 85.0463 64.4983ZM93.8207 64.4833C93.5207 64.4833 93.2907 64.3933 93.1307 64.2133C92.9707 64.0333 92.8907 63.7833 92.8907 63.4633V57.9583C92.8907 57.6283 92.9707 57.3783 93.1307 57.2083C93.2907 57.0283 93.5207 56.9383 93.8207 56.9383C94.1207 56.9383 94.3507 57.0283 94.5107 57.2083C94.6807 57.3783 94.7657 57.6283 94.7657 57.9583V63.4633C94.7657 63.7833 94.6857 64.0333 94.5257 64.2133C94.3657 64.3933 94.1307 64.4833 93.8207 64.4833ZM93.8207 55.5433C93.4707 55.5433 93.1957 55.4583 92.9957 55.2883C92.8057 55.1083 92.7107 54.8633 92.7107 54.5533C92.7107 54.2333 92.8057 53.9883 92.9957 53.8183C93.1957 53.6483 93.4707 53.5633 93.8207 53.5633C94.1807 53.5633 94.4557 53.6483 94.6457 53.8183C94.8357 53.9883 94.9307 54.2333 94.9307 54.5533C94.9307 54.8633 94.8357 55.1083 94.6457 55.2883C94.4557 55.4583 94.1807 55.5433 93.8207 55.5433ZM100.074 64.5283C99.424 64.5283 98.879 64.4183 98.439 64.1983C98.009 63.9783 97.689 63.6583 97.479 63.2383C97.269 62.8083 97.164 62.2783 97.164 61.6483V58.4533H96.384C96.144 58.4533 95.959 58.3933 95.829 58.2733C95.699 58.1433 95.634 57.9683 95.634 57.7483C95.634 57.5183 95.699 57.3433 95.829 57.2233C95.959 57.1033 96.144 57.0433 96.384 57.0433H97.164V55.6783C97.164 55.3683 97.244 55.1333 97.404 54.9733C97.574 54.8133 97.809 54.7333 98.109 54.7333C98.409 54.7333 98.639 54.8133 98.799 54.9733C98.959 55.1333 99.039 55.3683 99.039 55.6783V57.0433H100.629C100.869 57.0433 101.054 57.1033 101.184 57.2233C101.314 57.3433 101.379 57.5183 101.379 57.7483C101.379 57.9683 101.314 58.1433 101.184 58.2733C101.054 58.3933 100.869 58.4533 100.629 58.4533H99.039V61.5433C99.039 62.0233 99.144 62.3833 99.354 62.6233C99.564 62.8633 99.904 62.9833 100.374 62.9833C100.544 62.9833 100.694 62.9683 100.824 62.9383C100.954 62.9083 101.069 62.8883 101.169 62.8783C101.289 62.8683 101.389 62.9083 101.469 62.9983C101.549 63.0783 101.589 63.2483 101.589 63.5083C101.589 63.7083 101.554 63.8883 101.484 64.0483C101.424 64.1983 101.309 64.3033 101.139 64.3633C101.009 64.4033 100.839 64.4383 100.629 64.4683C100.419 64.5083 100.234 64.5283 100.074 64.5283ZM105.743 64.5283C104.983 64.5283 104.323 64.3733 103.763 64.0633C103.203 63.7533 102.768 63.3133 102.458 62.7433C102.148 62.1633 101.993 61.4833 101.993 60.7033C101.993 60.1133 102.078 59.5883 102.248 59.1283C102.428 58.6583 102.683 58.2583 103.013 57.9283C103.343 57.5883 103.738 57.3333 104.198 57.1633C104.658 56.9833 105.173 56.8933 105.743 56.8933C106.503 56.8933 107.163 57.0483 107.723 57.3583C108.283 57.6683 108.718 58.1083 109.028 58.6783C109.338 59.2483 109.493 59.9233 109.493 60.7033C109.493 61.2933 109.403 61.8233 109.223 62.2933C109.053 62.7633 108.803 63.1683 108.473 63.5083C108.143 63.8383 107.748 64.0933 107.288 64.2733C106.828 64.4433 106.313 64.5283 105.743 64.5283ZM105.743 63.1033C106.113 63.1033 106.438 63.0133 106.718 62.8333C106.998 62.6533 107.213 62.3883 107.363 62.0383C107.523 61.6783 107.603 61.2333 107.603 60.7033C107.603 59.9033 107.433 59.3083 107.093 58.9183C106.753 58.5183 106.303 58.3183 105.743 58.3183C105.373 58.3183 105.048 58.4083 104.768 58.5883C104.488 58.7583 104.268 59.0233 104.108 59.3833C103.958 59.7333 103.883 60.1733 103.883 60.7033C103.883 61.4933 104.053 62.0933 104.393 62.5033C104.733 62.9033 105.183 63.1033 105.743 63.1033ZM112 64.4983C111.69 64.4983 111.45 64.4183 111.28 64.2583C111.12 64.0883 111.04 63.8483 111.04 63.5383V57.8683C111.04 57.5583 111.12 57.3233 111.28 57.1633C111.44 57.0033 111.665 56.9233 111.955 56.9233C112.245 56.9233 112.47 57.0033 112.63 57.1633C112.79 57.3233 112.87 57.5583 112.87 57.8683V58.8133H112.72C112.86 58.2133 113.135 57.7583 113.545 57.4483C113.955 57.1383 114.5 56.9533 115.18 56.8933C115.39 56.8733 115.555 56.9283 115.675 57.0583C115.805 57.1783 115.88 57.3683 115.9 57.6283C115.92 57.8783 115.86 58.0833 115.72 58.2433C115.59 58.3933 115.39 58.4833 115.12 58.5133L114.79 58.5433C114.18 58.6033 113.72 58.7933 113.41 59.1133C113.1 59.4233 112.945 59.8633 112.945 60.4333V63.5383C112.945 63.8483 112.865 64.0883 112.705 64.2583C112.545 64.4183 112.31 64.4983 112 64.4983ZM117.844 64.4833C117.544 64.4833 117.314 64.3933 117.154 64.2133C116.994 64.0333 116.914 63.7833 116.914 63.4633V57.9583C116.914 57.6283 116.994 57.3783 117.154 57.2083C117.314 57.0283 117.544 56.9383 117.844 56.9383C118.144 56.9383 118.374 57.0283 118.534 57.2083C118.704 57.3783 118.789 57.6283 118.789 57.9583V63.4633C118.789 63.7833 118.709 64.0333 118.549 64.2133C118.389 64.3933 118.154 64.4833 117.844 64.4833ZM117.844 55.5433C117.494 55.5433 117.219 55.4583 117.019 55.2883C116.829 55.1083 116.734 54.8633 116.734 54.5533C116.734 54.2333 116.829 53.9883 117.019 53.8183C117.219 53.6483 117.494 53.5633 117.844 53.5633C118.204 53.5633 118.479 53.6483 118.669 53.8183C118.859 53.9883 118.954 54.2333 118.954 54.5533C118.954 54.8633 118.859 55.1083 118.669 55.2883C118.479 55.4583 118.204 55.5433 117.844 55.5433ZM121.667 64.4983C121.367 64.4983 121.137 64.4183 120.977 64.2583C120.817 64.0883 120.737 63.8483 120.737 63.5383V57.8683C120.737 57.5583 120.817 57.3233 120.977 57.1633C121.137 57.0033 121.362 56.9233 121.652 56.9233C121.942 56.9233 122.167 57.0033 122.327 57.1633C122.487 57.3233 122.567 57.5583 122.567 57.8683V58.8883L122.402 58.5133C122.622 57.9833 122.962 57.5833 123.422 57.3133C123.892 57.0333 124.422 56.8933 125.012 56.8933C125.602 56.8933 126.087 57.0033 126.467 57.2233C126.847 57.4433 127.132 57.7783 127.322 58.2283C127.512 58.6683 127.607 59.2283 127.607 59.9083V63.5383C127.607 63.8483 127.527 64.0883 127.367 64.2583C127.207 64.4183 126.977 64.4983 126.677 64.4983C126.377 64.4983 126.142 64.4183 125.972 64.2583C125.812 64.0883 125.732 63.8483 125.732 63.5383V59.9983C125.732 59.4283 125.622 59.0133 125.402 58.7533C125.192 58.4933 124.862 58.3633 124.412 58.3633C123.862 58.3633 123.422 58.5383 123.092 58.8883C122.772 59.2283 122.612 59.6833 122.612 60.2533V63.5383C122.612 64.1783 122.297 64.4983 121.667 64.4983ZM132.932 67.2283C132.392 67.2283 131.867 67.1783 131.357 67.0783C130.857 66.9783 130.402 66.8233 129.992 66.6133C129.802 66.5133 129.672 66.3933 129.602 66.2533C129.542 66.1133 129.522 65.9683 129.542 65.8183C129.572 65.6783 129.632 65.5533 129.722 65.4433C129.822 65.3333 129.942 65.2583 130.082 65.2183C130.222 65.1783 130.367 65.1983 130.517 65.2783C130.957 65.4983 131.372 65.6383 131.762 65.6983C132.162 65.7683 132.502 65.8033 132.782 65.8033C133.452 65.8033 133.952 65.6383 134.282 65.3083C134.622 64.9883 134.792 64.5083 134.792 63.8683V62.5183H134.927C134.777 63.0283 134.462 63.4383 133.982 63.7483C133.512 64.0483 132.977 64.1983 132.377 64.1983C131.717 64.1983 131.142 64.0483 130.652 63.7483C130.162 63.4383 129.782 63.0083 129.512 62.4583C129.242 61.9083 129.107 61.2683 129.107 60.5383C129.107 59.9883 129.182 59.4933 129.332 59.0533C129.492 58.6033 129.712 58.2183 129.992 57.8983C130.282 57.5783 130.627 57.3333 131.027 57.1633C131.437 56.9833 131.887 56.8933 132.377 56.8933C132.997 56.8933 133.537 57.0483 133.997 57.3583C134.467 57.6583 134.772 58.0583 134.912 58.5583L134.762 58.9333V57.8683C134.762 57.5583 134.842 57.3233 135.002 57.1633C135.172 57.0033 135.402 56.9233 135.692 56.9233C135.992 56.9233 136.222 57.0033 136.382 57.1633C136.542 57.3233 136.622 57.5583 136.622 57.8683V63.6433C136.622 64.8333 136.307 65.7283 135.677 66.3283C135.047 66.9283 134.132 67.2283 132.932 67.2283ZM132.887 62.7733C133.277 62.7733 133.612 62.6833 133.892 62.5033C134.172 62.3233 134.387 62.0683 134.537 61.7383C134.697 61.3983 134.777 60.9983 134.777 60.5383C134.777 59.8483 134.607 59.3083 134.267 58.9183C133.927 58.5183 133.467 58.3183 132.887 58.3183C132.497 58.3183 132.162 58.4083 131.882 58.5883C131.602 58.7683 131.382 59.0233 131.222 59.3533C131.072 59.6833 130.997 60.0783 130.997 60.5383C130.997 61.2283 131.167 61.7733 131.507 62.1733C131.847 62.5733 132.307 62.7733 132.887 62.7733ZM146.177 64.5283C145.427 64.5283 144.777 64.4083 144.227 64.1683C143.677 63.9283 143.252 63.5983 142.952 63.1783C142.662 62.7483 142.517 62.2483 142.517 61.6783C142.517 61.3383 142.562 61.0233 142.652 60.7333C142.752 60.4333 142.892 60.1583 143.072 59.9083C143.262 59.6483 143.487 59.4083 143.747 59.1883C144.017 58.9583 144.322 58.7433 144.662 58.5433L145.172 58.2433L144.902 58.6483C144.462 58.2083 144.142 57.7933 143.942 57.4033C143.752 57.0033 143.657 56.5933 143.657 56.1733C143.657 55.6733 143.777 55.2333 144.017 54.8533C144.257 54.4733 144.597 54.1783 145.037 53.9683C145.477 53.7583 145.992 53.6533 146.582 53.6533C147.402 53.6533 148.052 53.8633 148.532 54.2833C149.012 54.6933 149.252 55.2533 149.252 55.9633C149.252 56.3433 149.177 56.7033 149.027 57.0433C148.877 57.3833 148.637 57.7083 148.307 58.0183C147.977 58.3283 147.537 58.6333 146.987 58.9333L147.002 58.4833L149.552 61.1983H149.147C149.277 60.9783 149.392 60.7383 149.492 60.4783C149.592 60.2083 149.677 59.9233 149.747 59.6233C149.827 59.3133 149.887 58.9933 149.927 58.6633C149.967 58.4133 150.052 58.2283 150.182 58.1083C150.312 57.9783 150.497 57.9133 150.737 57.9133C150.997 57.9133 151.192 57.9883 151.322 58.1383C151.452 58.2783 151.502 58.4833 151.472 58.7533C151.422 59.2233 151.337 59.6733 151.217 60.1033C151.107 60.5233 150.967 60.9183 150.797 61.2883C150.627 61.6483 150.437 61.9833 150.227 62.2933L150.212 61.8283L151.637 63.2683C151.827 63.4583 151.922 63.6483 151.922 63.8383C151.922 64.0283 151.847 64.1883 151.697 64.3183C151.557 64.4383 151.362 64.4983 151.112 64.4983C150.892 64.4983 150.712 64.4583 150.572 64.3783C150.432 64.2883 150.277 64.1583 150.107 63.9883L149.177 63.0133H149.612C149.172 63.4833 148.652 63.8533 148.052 64.1233C147.462 64.3933 146.837 64.5283 146.177 64.5283ZM146.282 63.0433C146.762 63.0433 147.187 62.9533 147.557 62.7733C147.937 62.5833 148.282 62.3033 148.592 61.9333L148.547 62.4133L145.457 59.2183L146.237 59.2933L145.802 59.5483C145.462 59.7483 145.187 59.9483 144.977 60.1483C144.767 60.3383 144.612 60.5483 144.512 60.7783C144.422 60.9983 144.377 61.2483 144.377 61.5283C144.377 61.9983 144.542 62.3683 144.872 62.6383C145.202 62.9083 145.672 63.0433 146.282 63.0433ZM146.582 54.9883C146.222 54.9883 145.932 55.0933 145.712 55.3033C145.492 55.5033 145.382 55.7783 145.382 56.1283C145.382 56.3183 145.412 56.4983 145.472 56.6683C145.532 56.8283 145.637 57.0083 145.787 57.2083C145.937 57.3983 146.142 57.6333 146.402 57.9133L145.982 57.8833C146.402 57.6433 146.732 57.4283 146.972 57.2383C147.222 57.0483 147.402 56.8583 147.512 56.6683C147.622 56.4783 147.677 56.2683 147.677 56.0383C147.677 55.6983 147.577 55.4383 147.377 55.2583C147.177 55.0783 146.912 54.9883 146.582 54.9883ZM158.793 64.3783C158.463 64.3783 158.208 64.2933 158.028 64.1233C157.858 63.9433 157.773 63.6883 157.773 63.3583V54.8233C157.773 54.4933 157.858 54.2433 158.028 54.0733C158.208 53.8933 158.463 53.8033 158.793 53.8033H164.148C164.398 53.8033 164.588 53.8683 164.718 53.9983C164.858 54.1283 164.928 54.3133 164.928 54.5533C164.928 54.8033 164.858 54.9983 164.718 55.1383C164.588 55.2683 164.398 55.3333 164.148 55.3333H159.618V58.2433H163.818C164.078 58.2433 164.273 58.3083 164.403 58.4383C164.533 58.5683 164.598 58.7583 164.598 59.0083C164.598 59.2583 164.533 59.4483 164.403 59.5783C164.273 59.7083 164.078 59.7733 163.818 59.7733H159.618V62.8483H164.148C164.398 62.8483 164.588 62.9133 164.718 63.0433C164.858 63.1733 164.928 63.3633 164.928 63.6133C164.928 63.8633 164.858 64.0533 164.718 64.1833C164.588 64.3133 164.398 64.3783 164.148 64.3783H158.793ZM169.396 64.4983C169.146 64.4983 168.926 64.4333 168.736 64.3033C168.556 64.1733 168.406 63.9733 168.286 63.7033L165.901 58.1683C165.811 57.9483 165.776 57.7433 165.796 57.5533C165.826 57.3633 165.916 57.2133 166.066 57.1033C166.226 56.9833 166.441 56.9233 166.711 56.9233C166.941 56.9233 167.126 56.9783 167.266 57.0883C167.406 57.1883 167.531 57.3833 167.641 57.6733L169.666 62.7283H169.216L171.301 57.6583C171.411 57.3783 171.536 57.1883 171.676 57.0883C171.826 56.9783 172.026 56.9233 172.276 56.9233C172.496 56.9233 172.671 56.9833 172.801 57.1033C172.931 57.2133 173.011 57.3633 173.041 57.5533C173.071 57.7333 173.036 57.9333 172.936 58.1533L170.506 63.7033C170.396 63.9733 170.246 64.1733 170.056 64.3033C169.876 64.4333 169.656 64.4983 169.396 64.4983ZM176.605 64.5283C176.075 64.5283 175.6 64.4283 175.18 64.2283C174.77 64.0183 174.445 63.7383 174.205 63.3883C173.975 63.0383 173.86 62.6433 173.86 62.2033C173.86 61.6633 174 61.2383 174.28 60.9283C174.56 60.6083 175.015 60.3783 175.645 60.2383C176.275 60.0983 177.12 60.0283 178.18 60.0283H178.93V61.1083H178.195C177.575 61.1083 177.08 61.1383 176.71 61.1983C176.34 61.2583 176.075 61.3633 175.915 61.5133C175.765 61.6533 175.69 61.8533 175.69 62.1133C175.69 62.4433 175.805 62.7133 176.035 62.9233C176.265 63.1333 176.585 63.2383 176.995 63.2383C177.325 63.2383 177.615 63.1633 177.865 63.0133C178.125 62.8533 178.33 62.6383 178.48 62.3683C178.63 62.0983 178.705 61.7883 178.705 61.4383V59.7133C178.705 59.2133 178.595 58.8533 178.375 58.6333C178.155 58.4133 177.785 58.3033 177.265 58.3033C176.975 58.3033 176.66 58.3383 176.32 58.4083C175.99 58.4783 175.64 58.5983 175.27 58.7683C175.08 58.8583 174.91 58.8833 174.76 58.8433C174.62 58.8033 174.51 58.7233 174.43 58.6033C174.35 58.4733 174.31 58.3333 174.31 58.1833C174.31 58.0333 174.35 57.8883 174.43 57.7483C174.51 57.5983 174.645 57.4883 174.835 57.4183C175.295 57.2283 175.735 57.0933 176.155 57.0133C176.585 56.9333 176.975 56.8933 177.325 56.8933C178.045 56.8933 178.635 57.0033 179.095 57.2233C179.565 57.4433 179.915 57.7783 180.145 58.2283C180.375 58.6683 180.49 59.2383 180.49 59.9383V63.5383C180.49 63.8483 180.415 64.0883 180.265 64.2583C180.115 64.4183 179.9 64.4983 179.62 64.4983C179.34 64.4983 179.12 64.4183 178.96 64.2583C178.81 64.0883 178.735 63.8483 178.735 63.5383V62.8183H178.855C178.785 63.1683 178.645 63.4733 178.435 63.7333C178.235 63.9833 177.98 64.1783 177.67 64.3183C177.36 64.4583 177.005 64.5283 176.605 64.5283ZM184.898 64.5283C184.068 64.5283 183.443 64.2933 183.023 63.8233C182.603 63.3433 182.393 62.6433 182.393 61.7233V54.6283C182.393 54.3183 182.473 54.0833 182.633 53.9233C182.793 53.7633 183.023 53.6833 183.323 53.6833C183.623 53.6833 183.853 53.7633 184.013 53.9233C184.183 54.0833 184.268 54.3183 184.268 54.6283V61.6333C184.268 62.0933 184.363 62.4333 184.553 62.6533C184.753 62.8733 185.033 62.9833 185.393 62.9833C185.473 62.9833 185.548 62.9833 185.618 62.9833C185.688 62.9733 185.758 62.9633 185.828 62.9533C185.968 62.9333 186.063 62.9733 186.113 63.0733C186.163 63.1633 186.188 63.3533 186.188 63.6433C186.188 63.8933 186.138 64.0883 186.038 64.2283C185.938 64.3683 185.773 64.4533 185.543 64.4833C185.443 64.4933 185.338 64.5033 185.228 64.5133C185.118 64.5233 185.008 64.5283 184.898 64.5283ZM189.838 64.5283C189.228 64.5283 188.723 64.4183 188.323 64.1983C187.923 63.9683 187.623 63.6283 187.423 63.1783C187.233 62.7283 187.138 62.1683 187.138 61.4983V57.8683C187.138 57.5483 187.218 57.3133 187.378 57.1633C187.538 57.0033 187.768 56.9233 188.068 56.9233C188.368 56.9233 188.598 57.0033 188.758 57.1633C188.928 57.3133 189.013 57.5483 189.013 57.8683V61.5283C189.013 62.0483 189.118 62.4333 189.328 62.6833C189.538 62.9333 189.873 63.0583 190.333 63.0583C190.833 63.0583 191.243 62.8883 191.563 62.5483C191.883 62.1983 192.043 61.7383 192.043 61.1683V57.8683C192.043 57.5483 192.123 57.3133 192.283 57.1633C192.443 57.0033 192.673 56.9233 192.973 56.9233C193.273 56.9233 193.503 57.0033 193.663 57.1633C193.833 57.3133 193.918 57.5483 193.918 57.8683V63.5383C193.918 64.1783 193.613 64.4983 193.003 64.4983C192.713 64.4983 192.488 64.4183 192.328 64.2583C192.168 64.0883 192.088 63.8483 192.088 63.5383V62.3983L192.298 62.8483C192.088 63.3883 191.768 63.8033 191.338 64.0933C190.918 64.3833 190.418 64.5283 189.838 64.5283ZM198.284 64.5283C197.754 64.5283 197.279 64.4283 196.859 64.2283C196.449 64.0183 196.124 63.7383 195.884 63.3883C195.654 63.0383 195.539 62.6433 195.539 62.2033C195.539 61.6633 195.679 61.2383 195.959 60.9283C196.239 60.6083 196.694 60.3783 197.324 60.2383C197.954 60.0983 198.799 60.0283 199.859 60.0283H200.609V61.1083H199.874C199.254 61.1083 198.759 61.1383 198.389 61.1983C198.019 61.2583 197.754 61.3633 197.594 61.5133C197.444 61.6533 197.369 61.8533 197.369 62.1133C197.369 62.4433 197.484 62.7133 197.714 62.9233C197.944 63.1333 198.264 63.2383 198.674 63.2383C199.004 63.2383 199.294 63.1633 199.544 63.0133C199.804 62.8533 200.009 62.6383 200.159 62.3683C200.309 62.0983 200.384 61.7883 200.384 61.4383V59.7133C200.384 59.2133 200.274 58.8533 200.054 58.6333C199.834 58.4133 199.464 58.3033 198.944 58.3033C198.654 58.3033 198.339 58.3383 197.999 58.4083C197.669 58.4783 197.319 58.5983 196.949 58.7683C196.759 58.8583 196.589 58.8833 196.439 58.8433C196.299 58.8033 196.189 58.7233 196.109 58.6033C196.029 58.4733 195.989 58.3333 195.989 58.1833C195.989 58.0333 196.029 57.8883 196.109 57.7483C196.189 57.5983 196.324 57.4883 196.514 57.4183C196.974 57.2283 197.414 57.0933 197.834 57.0133C198.264 56.9333 198.654 56.8933 199.004 56.8933C199.724 56.8933 200.314 57.0033 200.774 57.2233C201.244 57.4433 201.594 57.7783 201.824 58.2283C202.054 58.6683 202.169 59.2383 202.169 59.9383V63.5383C202.169 63.8483 202.094 64.0883 201.944 64.2583C201.794 64.4183 201.579 64.4983 201.299 64.4983C201.019 64.4983 200.799 64.4183 200.639 64.2583C200.489 64.0883 200.414 63.8483 200.414 63.5383V62.8183H200.534C200.464 63.1683 200.324 63.4733 200.114 63.7333C199.914 63.9833 199.659 64.1783 199.349 64.3183C199.039 64.4583 198.684 64.5283 198.284 64.5283ZM206.757 64.5283C206.327 64.5283 205.872 64.4833 205.392 64.3933C204.912 64.3033 204.482 64.1483 204.102 63.9283C203.942 63.8283 203.827 63.7133 203.757 63.5833C203.697 63.4433 203.672 63.3083 203.682 63.1783C203.702 63.0383 203.752 62.9183 203.832 62.8183C203.922 62.7183 204.032 62.6533 204.162 62.6233C204.302 62.5933 204.452 62.6183 204.612 62.6983C205.012 62.8883 205.387 63.0233 205.737 63.1033C206.087 63.1733 206.432 63.2083 206.772 63.2083C207.252 63.2083 207.607 63.1283 207.837 62.9683C208.077 62.7983 208.197 62.5783 208.197 62.3083C208.197 62.0783 208.117 61.9033 207.957 61.7833C207.807 61.6533 207.577 61.5583 207.267 61.4983L205.767 61.2133C205.147 61.0933 204.672 60.8683 204.342 60.5383C204.022 60.1983 203.862 59.7633 203.862 59.2333C203.862 58.7533 203.992 58.3383 204.252 57.9883C204.522 57.6383 204.892 57.3683 205.362 57.1783C205.832 56.9883 206.372 56.8933 206.982 56.8933C207.422 56.8933 207.832 56.9433 208.212 57.0433C208.602 57.1333 208.977 57.2783 209.337 57.4783C209.487 57.5583 209.587 57.6633 209.637 57.7933C209.697 57.9233 209.712 58.0583 209.682 58.1983C209.652 58.3283 209.592 58.4483 209.502 58.5583C209.412 58.6583 209.297 58.7233 209.157 58.7533C209.027 58.7733 208.877 58.7433 208.707 58.6633C208.397 58.5033 208.097 58.3883 207.807 58.3183C207.527 58.2483 207.257 58.2133 206.997 58.2133C206.507 58.2133 206.142 58.2983 205.902 58.4683C205.672 58.6383 205.557 58.8633 205.557 59.1433C205.557 59.3533 205.627 59.5283 205.767 59.6683C205.907 59.8083 206.122 59.9033 206.412 59.9533L207.912 60.2383C208.562 60.3583 209.052 60.5783 209.382 60.8983C209.722 61.2183 209.892 61.6483 209.892 62.1883C209.892 62.9183 209.607 63.4933 209.037 63.9133C208.467 64.3233 207.707 64.5283 206.757 64.5283ZM212.327 64.4833C212.027 64.4833 211.797 64.3933 211.637 64.2133C211.477 64.0333 211.397 63.7833 211.397 63.4633V57.9583C211.397 57.6283 211.477 57.3783 211.637 57.2083C211.797 57.0283 212.027 56.9383 212.327 56.9383C212.627 56.9383 212.857 57.0283 213.017 57.2083C213.187 57.3783 213.272 57.6283 213.272 57.9583V63.4633C213.272 63.7833 213.192 64.0333 213.032 64.2133C212.872 64.3933 212.637 64.4833 212.327 64.4833ZM212.327 55.5433C211.977 55.5433 211.702 55.4583 211.502 55.2883C211.312 55.1083 211.217 54.8633 211.217 54.5533C211.217 54.2333 211.312 53.9883 211.502 53.8183C211.702 53.6483 211.977 53.5633 212.327 53.5633C212.687 53.5633 212.962 53.6483 213.152 53.8183C213.342 53.9883 213.437 54.2333 213.437 54.5533C213.437 54.8633 213.342 55.1083 213.152 55.2883C212.962 55.4583 212.687 55.5433 212.327 55.5433Z" fill="black"/>
</svg>
