<svg width="522" height="62" viewBox="0 0 522 62" fill="none" xmlns="http://www.w3.org/2000/svg">
<mask id="path-1-outside-1_232_341" maskUnits="userSpaceOnUse" x="-1" y="-1" width="524" height="64" fill="black">
<rect fill="white" x="-1" y="-1" width="524" height="64"/>
<path d="M25.38 45L12.12 26.46V45H0.36V2.7H12.12V20.94L25.26 2.7H38.82L23.28 23.22L39.6 45H25.38ZM41.9752 28.14C41.9752 24.66 42.5952 21.62 43.8352 19.02C45.1152 16.42 46.8352 14.42 48.9952 13.02C51.1952 11.62 53.6352 10.92 56.3152 10.92C58.6352 10.92 60.6352 11.38 62.3152 12.3C63.9952 13.22 65.2952 14.46 66.2152 16.02V11.34H77.9752V45H66.2152V40.32C65.2952 41.88 63.9752 43.12 62.2552 44.04C60.5752 44.96 58.5952 45.42 56.3152 45.42C53.6352 45.42 51.1952 44.72 48.9952 43.32C46.8352 41.92 45.1152 39.92 43.8352 37.32C42.5952 34.68 41.9752 31.62 41.9752 28.14ZM66.2152 28.14C66.2152 25.98 65.6152 24.28 64.4152 23.04C63.2552 21.8 61.8152 21.18 60.0952 21.18C58.3352 21.18 56.8752 21.8 55.7152 23.04C54.5552 24.24 53.9752 25.94 53.9752 28.14C53.9752 30.3 54.5552 32.02 55.7152 33.3C56.8752 34.54 58.3352 35.16 60.0952 35.16C61.8152 35.16 63.2552 34.54 64.4152 33.3C65.6152 32.06 66.2152 30.34 66.2152 28.14ZM96.4364 16.02C97.3564 14.42 98.6564 13.18 100.336 12.3C102.016 11.38 103.996 10.92 106.276 10.92C108.956 10.92 111.376 11.62 113.536 13.02C115.736 14.42 117.456 16.42 118.696 19.02C119.976 21.62 120.616 24.66 120.616 28.14C120.616 31.62 119.976 34.68 118.696 37.32C117.456 39.92 115.736 41.92 113.536 43.32C111.376 44.72 108.956 45.42 106.276 45.42C103.996 45.42 102.016 44.98 100.336 44.1C98.6564 43.18 97.3564 41.92 96.4364 40.32V45H84.6764V0.599999H96.4364V16.02ZM108.676 28.14C108.676 25.94 108.076 24.24 106.876 23.04C105.716 21.8 104.276 21.18 102.556 21.18C100.836 21.18 99.3764 21.8 98.1764 23.04C97.0164 24.28 96.4364 25.98 96.4364 28.14C96.4364 30.34 97.0164 32.06 98.1764 33.3C99.3764 34.54 100.836 35.16 102.556 35.16C104.276 35.16 105.716 34.54 106.876 33.3C108.076 32.02 108.676 30.3 108.676 28.14ZM159.898 11.34V45H148.078V40.2C147.078 41.72 145.698 42.96 143.938 43.92C142.178 44.84 140.158 45.3 137.878 45.3C133.958 45.3 130.858 44.02 128.578 41.46C126.338 38.86 125.218 35.34 125.218 30.9V11.34H136.918V29.4C136.918 31.32 137.418 32.84 138.418 33.96C139.458 35.04 140.818 35.58 142.498 35.58C144.218 35.58 145.578 35.04 146.578 33.96C147.578 32.84 148.078 31.32 148.078 29.4V11.34H159.898ZM178.35 16.02C179.27 14.46 180.57 13.22 182.25 12.3C183.93 11.38 185.91 10.92 188.19 10.92C190.87 10.92 193.29 11.62 195.45 13.02C197.65 14.42 199.37 16.42 200.61 19.02C201.89 21.62 202.53 24.66 202.53 28.14C202.53 31.62 201.89 34.68 200.61 37.32C199.37 39.92 197.65 41.92 195.45 43.32C193.29 44.72 190.87 45.42 188.19 45.42C185.91 45.42 183.93 44.96 182.25 44.04C180.61 43.12 179.31 41.88 178.35 40.32V61.08H166.59V11.34H178.35V16.02ZM190.59 28.14C190.59 25.94 189.99 24.24 188.79 23.04C187.63 21.8 186.19 21.18 184.47 21.18C182.75 21.18 181.29 21.8 180.09 23.04C178.93 24.28 178.35 25.98 178.35 28.14C178.35 30.34 178.93 32.06 180.09 33.3C181.29 34.54 182.75 35.16 184.47 35.16C186.19 35.16 187.63 34.54 188.79 33.3C189.99 32.02 190.59 30.3 190.59 28.14ZM205.452 28.14C205.452 24.66 206.072 21.62 207.312 19.02C208.592 16.42 210.312 14.42 212.472 13.02C214.672 11.62 217.112 10.92 219.792 10.92C222.112 10.92 224.112 11.38 225.792 12.3C227.472 13.22 228.772 14.46 229.692 16.02V11.34H241.452V45H229.692V40.32C228.772 41.88 227.452 43.12 225.732 44.04C224.052 44.96 222.072 45.42 219.792 45.42C217.112 45.42 214.672 44.72 212.472 43.32C210.312 41.92 208.592 39.92 207.312 37.32C206.072 34.68 205.452 31.62 205.452 28.14ZM229.692 28.14C229.692 25.98 229.092 24.28 227.892 23.04C226.732 21.8 225.292 21.18 223.572 21.18C221.812 21.18 220.352 21.8 219.192 23.04C218.032 24.24 217.452 25.94 217.452 28.14C217.452 30.3 218.032 32.02 219.192 33.3C220.352 34.54 221.812 35.16 223.572 35.16C225.292 35.16 226.732 34.54 227.892 33.3C229.092 32.06 229.692 30.34 229.692 28.14ZM268.013 34.98V45H262.913C254.313 45 250.013 40.74 250.013 32.22V21.12H245.873V11.34H250.013V3.18H261.833V11.34H267.953V21.12H261.833V32.4C261.833 33.32 262.033 33.98 262.433 34.38C262.873 34.78 263.593 34.98 264.593 34.98H268.013ZM305.567 27.78C305.567 28.7 305.507 29.62 305.387 30.54H283.127C283.247 32.38 283.747 33.76 284.627 34.68C285.547 35.56 286.707 36 288.107 36C290.067 36 291.467 35.12 292.307 33.36H304.847C304.327 35.68 303.307 37.76 301.787 39.6C300.307 41.4 298.427 42.82 296.147 43.86C293.867 44.9 291.347 45.42 288.587 45.42C285.267 45.42 282.307 44.72 279.707 43.32C277.147 41.92 275.127 39.92 273.647 37.32C272.207 34.72 271.487 31.66 271.487 28.14C271.487 24.62 272.207 21.58 273.647 19.02C275.087 16.42 277.087 14.42 279.647 13.02C282.247 11.62 285.227 10.92 288.587 10.92C291.907 10.92 294.847 11.6 297.407 12.96C299.967 14.32 301.967 16.28 303.407 18.84C304.847 21.36 305.567 24.34 305.567 27.78ZM293.567 24.84C293.567 23.4 293.087 22.28 292.127 21.48C291.167 20.64 289.967 20.22 288.527 20.22C287.087 20.22 285.907 20.62 284.987 21.42C284.067 22.18 283.467 23.32 283.187 24.84H293.567ZM332.4 11.04C336.28 11.04 339.36 12.34 341.64 14.94C343.92 17.5 345.06 20.98 345.06 25.38V45H333.3V26.94C333.3 25.02 332.8 23.52 331.8 22.44C330.8 21.32 329.46 20.76 327.78 20.76C326.02 20.76 324.64 21.32 323.64 22.44C322.64 23.52 322.14 25.02 322.14 26.94V45H310.38V11.34H322.14V16.14C323.18 14.62 324.58 13.4 326.34 12.48C328.1 11.52 330.12 11.04 332.4 11.04ZM374.757 36H387.897V45H362.997V2.7H374.757V36ZM426.909 11.34V45H415.089V40.2C414.089 41.72 412.709 42.96 410.949 43.92C409.189 44.84 407.169 45.3 404.889 45.3C400.969 45.3 397.869 44.02 395.589 41.46C393.349 38.86 392.229 35.34 392.229 30.9V11.34H403.929V29.4C403.929 31.32 404.429 32.84 405.429 33.96C406.469 35.04 407.829 35.58 409.509 35.58C411.229 35.58 412.589 35.04 413.589 33.96C414.589 32.84 415.089 31.32 415.089 29.4V11.34H426.909ZM483.342 11.34L474.762 45H461.562L456.882 24.6L452.022 45H438.882L430.362 11.34H442.062L445.842 33.66L450.822 11.34H463.422L468.582 33.72L472.302 11.34H483.342ZM521.128 11.34V45H509.308V40.2C508.308 41.72 506.928 42.96 505.168 43.92C503.408 44.84 501.388 45.3 499.108 45.3C495.188 45.3 492.088 44.02 489.808 41.46C487.568 38.86 486.448 35.34 486.448 30.9V11.34H498.148V29.4C498.148 31.32 498.648 32.84 499.648 33.96C500.688 35.04 502.048 35.58 503.728 35.58C505.448 35.58 506.808 35.04 507.808 33.96C508.808 32.84 509.308 31.32 509.308 29.4V11.34H521.128Z"/>
</mask>
<path d="M25.38 45L12.12 26.46V45H0.36V2.7H12.12V20.94L25.26 2.7H38.82L23.28 23.22L39.6 45H25.38ZM41.9752 28.14C41.9752 24.66 42.5952 21.62 43.8352 19.02C45.1152 16.42 46.8352 14.42 48.9952 13.02C51.1952 11.62 53.6352 10.92 56.3152 10.92C58.6352 10.92 60.6352 11.38 62.3152 12.3C63.9952 13.22 65.2952 14.46 66.2152 16.02V11.34H77.9752V45H66.2152V40.32C65.2952 41.88 63.9752 43.12 62.2552 44.04C60.5752 44.96 58.5952 45.42 56.3152 45.42C53.6352 45.42 51.1952 44.72 48.9952 43.32C46.8352 41.92 45.1152 39.92 43.8352 37.32C42.5952 34.68 41.9752 31.62 41.9752 28.14ZM66.2152 28.14C66.2152 25.98 65.6152 24.28 64.4152 23.04C63.2552 21.8 61.8152 21.18 60.0952 21.18C58.3352 21.18 56.8752 21.8 55.7152 23.04C54.5552 24.24 53.9752 25.94 53.9752 28.14C53.9752 30.3 54.5552 32.02 55.7152 33.3C56.8752 34.54 58.3352 35.16 60.0952 35.16C61.8152 35.16 63.2552 34.54 64.4152 33.3C65.6152 32.06 66.2152 30.34 66.2152 28.14ZM96.4364 16.02C97.3564 14.42 98.6564 13.18 100.336 12.3C102.016 11.38 103.996 10.92 106.276 10.92C108.956 10.92 111.376 11.62 113.536 13.02C115.736 14.42 117.456 16.42 118.696 19.02C119.976 21.62 120.616 24.66 120.616 28.14C120.616 31.62 119.976 34.68 118.696 37.32C117.456 39.92 115.736 41.92 113.536 43.32C111.376 44.72 108.956 45.42 106.276 45.42C103.996 45.42 102.016 44.98 100.336 44.1C98.6564 43.18 97.3564 41.92 96.4364 40.32V45H84.6764V0.599999H96.4364V16.02ZM108.676 28.14C108.676 25.94 108.076 24.24 106.876 23.04C105.716 21.8 104.276 21.18 102.556 21.18C100.836 21.18 99.3764 21.8 98.1764 23.04C97.0164 24.28 96.4364 25.98 96.4364 28.14C96.4364 30.34 97.0164 32.06 98.1764 33.3C99.3764 34.54 100.836 35.16 102.556 35.16C104.276 35.16 105.716 34.54 106.876 33.3C108.076 32.02 108.676 30.3 108.676 28.14ZM159.898 11.34V45H148.078V40.2C147.078 41.72 145.698 42.96 143.938 43.92C142.178 44.84 140.158 45.3 137.878 45.3C133.958 45.3 130.858 44.02 128.578 41.46C126.338 38.86 125.218 35.34 125.218 30.9V11.34H136.918V29.4C136.918 31.32 137.418 32.84 138.418 33.96C139.458 35.04 140.818 35.58 142.498 35.58C144.218 35.58 145.578 35.04 146.578 33.96C147.578 32.84 148.078 31.32 148.078 29.4V11.34H159.898ZM178.35 16.02C179.27 14.46 180.57 13.22 182.25 12.3C183.93 11.38 185.91 10.92 188.19 10.92C190.87 10.92 193.29 11.62 195.45 13.02C197.65 14.42 199.37 16.42 200.61 19.02C201.89 21.62 202.53 24.66 202.53 28.14C202.53 31.62 201.89 34.68 200.61 37.32C199.37 39.92 197.65 41.92 195.45 43.32C193.29 44.72 190.87 45.42 188.19 45.42C185.91 45.42 183.93 44.96 182.25 44.04C180.61 43.12 179.31 41.88 178.35 40.32V61.08H166.59V11.34H178.35V16.02ZM190.59 28.14C190.59 25.94 189.99 24.24 188.79 23.04C187.63 21.8 186.19 21.18 184.47 21.18C182.75 21.18 181.29 21.8 180.09 23.04C178.93 24.28 178.35 25.98 178.35 28.14C178.35 30.34 178.93 32.06 180.09 33.3C181.29 34.54 182.75 35.16 184.47 35.16C186.19 35.16 187.63 34.54 188.79 33.3C189.99 32.02 190.59 30.3 190.59 28.14ZM205.452 28.14C205.452 24.66 206.072 21.62 207.312 19.02C208.592 16.42 210.312 14.42 212.472 13.02C214.672 11.62 217.112 10.92 219.792 10.92C222.112 10.92 224.112 11.38 225.792 12.3C227.472 13.22 228.772 14.46 229.692 16.02V11.34H241.452V45H229.692V40.32C228.772 41.88 227.452 43.12 225.732 44.04C224.052 44.96 222.072 45.42 219.792 45.42C217.112 45.42 214.672 44.72 212.472 43.32C210.312 41.92 208.592 39.92 207.312 37.32C206.072 34.68 205.452 31.62 205.452 28.14ZM229.692 28.14C229.692 25.98 229.092 24.28 227.892 23.04C226.732 21.8 225.292 21.18 223.572 21.18C221.812 21.18 220.352 21.8 219.192 23.04C218.032 24.24 217.452 25.94 217.452 28.14C217.452 30.3 218.032 32.02 219.192 33.3C220.352 34.54 221.812 35.16 223.572 35.16C225.292 35.16 226.732 34.54 227.892 33.3C229.092 32.06 229.692 30.34 229.692 28.14ZM268.013 34.98V45H262.913C254.313 45 250.013 40.74 250.013 32.22V21.12H245.873V11.34H250.013V3.18H261.833V11.34H267.953V21.12H261.833V32.4C261.833 33.32 262.033 33.98 262.433 34.38C262.873 34.78 263.593 34.98 264.593 34.98H268.013ZM305.567 27.78C305.567 28.7 305.507 29.62 305.387 30.54H283.127C283.247 32.38 283.747 33.76 284.627 34.68C285.547 35.56 286.707 36 288.107 36C290.067 36 291.467 35.12 292.307 33.36H304.847C304.327 35.68 303.307 37.76 301.787 39.6C300.307 41.4 298.427 42.82 296.147 43.86C293.867 44.9 291.347 45.42 288.587 45.42C285.267 45.42 282.307 44.72 279.707 43.32C277.147 41.92 275.127 39.92 273.647 37.32C272.207 34.72 271.487 31.66 271.487 28.14C271.487 24.62 272.207 21.58 273.647 19.02C275.087 16.42 277.087 14.42 279.647 13.02C282.247 11.62 285.227 10.92 288.587 10.92C291.907 10.92 294.847 11.6 297.407 12.96C299.967 14.32 301.967 16.28 303.407 18.84C304.847 21.36 305.567 24.34 305.567 27.78ZM293.567 24.84C293.567 23.4 293.087 22.28 292.127 21.48C291.167 20.64 289.967 20.22 288.527 20.22C287.087 20.22 285.907 20.62 284.987 21.42C284.067 22.18 283.467 23.32 283.187 24.84H293.567ZM332.4 11.04C336.28 11.04 339.36 12.34 341.64 14.94C343.92 17.5 345.06 20.98 345.06 25.38V45H333.3V26.94C333.3 25.02 332.8 23.52 331.8 22.44C330.8 21.32 329.46 20.76 327.78 20.76C326.02 20.76 324.64 21.32 323.64 22.44C322.64 23.52 322.14 25.02 322.14 26.94V45H310.38V11.34H322.14V16.14C323.18 14.62 324.58 13.4 326.34 12.48C328.1 11.52 330.12 11.04 332.4 11.04ZM374.757 36H387.897V45H362.997V2.7H374.757V36ZM426.909 11.34V45H415.089V40.2C414.089 41.72 412.709 42.96 410.949 43.92C409.189 44.84 407.169 45.3 404.889 45.3C400.969 45.3 397.869 44.02 395.589 41.46C393.349 38.86 392.229 35.34 392.229 30.9V11.34H403.929V29.4C403.929 31.32 404.429 32.84 405.429 33.96C406.469 35.04 407.829 35.58 409.509 35.58C411.229 35.58 412.589 35.04 413.589 33.96C414.589 32.84 415.089 31.32 415.089 29.4V11.34H426.909ZM483.342 11.34L474.762 45H461.562L456.882 24.6L452.022 45H438.882L430.362 11.34H442.062L445.842 33.66L450.822 11.34H463.422L468.582 33.72L472.302 11.34H483.342ZM521.128 11.34V45H509.308V40.2C508.308 41.72 506.928 42.96 505.168 43.92C503.408 44.84 501.388 45.3 499.108 45.3C495.188 45.3 492.088 44.02 489.808 41.46C487.568 38.86 486.448 35.34 486.448 30.9V11.34H498.148V29.4C498.148 31.32 498.648 32.84 499.648 33.96C500.688 35.04 502.048 35.58 503.728 35.58C505.448 35.58 506.808 35.04 507.808 33.96C508.808 32.84 509.308 31.32 509.308 29.4V11.34H521.128Z" fill="#FEEF00"/>
<path d="M25.38 45L24.5666 45.5817L24.8658 46H25.38V45ZM12.12 26.46L12.9334 25.8783L11.12 23.3428V26.46H12.12ZM12.12 45V46H13.12V45H12.12ZM0.36 45H-0.64V46H0.36V45ZM0.36 2.7V1.7H-0.64V2.7H0.36ZM12.12 2.7H13.12V1.7H12.12V2.7ZM12.12 20.94H11.12V24.0389L12.9314 21.5245L12.12 20.94ZM25.26 2.7V1.7H24.7479L24.4486 2.11548L25.26 2.7ZM38.82 2.7L39.6172 3.30372L40.8317 1.7H38.82V2.7ZM23.28 23.22L22.4828 22.6163L22.028 23.2168L22.4797 23.8196L23.28 23.22ZM39.6 45V46H41.5989L40.4003 44.4004L39.6 45ZM26.1934 44.4183L12.9334 25.8783L11.3066 27.0417L24.5666 45.5817L26.1934 44.4183ZM11.12 26.46V45H13.12V26.46H11.12ZM12.12 44H0.36V46H12.12V44ZM1.36 45V2.7H-0.64V45H1.36ZM0.36 3.7H12.12V1.7H0.36V3.7ZM11.12 2.7V20.94H13.12V2.7H11.12ZM12.9314 21.5245L26.0714 3.28451L24.4486 2.11548L11.3086 20.3555L12.9314 21.5245ZM25.26 3.7H38.82V1.7H25.26V3.7ZM38.0228 2.09627L22.4828 22.6163L24.0772 23.8237L39.6172 3.30372L38.0228 2.09627ZM22.4797 23.8196L38.7997 45.5996L40.4003 44.4004L24.0803 22.6204L22.4797 23.8196ZM39.6 44H25.38V46H39.6V44ZM43.8352 19.02L42.9379 18.5783L42.9326 18.5895L43.8352 19.02ZM48.9952 13.02L48.4583 12.1763L48.4513 12.1808L48.9952 13.02ZM62.3152 12.3L61.8348 13.1771L62.3152 12.3ZM66.2152 16.02L65.3538 16.528L67.2152 19.6842V16.02H66.2152ZM66.2152 11.34V10.34H65.2152V11.34H66.2152ZM77.9752 11.34H78.9752V10.34H77.9752V11.34ZM77.9752 45V46H78.9752V45H77.9752ZM66.2152 45H65.2152V46H66.2152V45ZM66.2152 40.32H67.2152V36.6558L65.3538 39.812L66.2152 40.32ZM62.2552 44.04L61.7835 43.1582L61.7748 43.1629L62.2552 44.04ZM48.9952 43.32L48.4512 44.1592L48.4583 44.1637L48.9952 43.32ZM43.8352 37.32L42.93 37.7451L42.9339 37.7534L42.938 37.7617L43.8352 37.32ZM64.4152 23.04L63.6849 23.7232L63.6907 23.7293L63.6966 23.7354L64.4152 23.04ZM55.7152 23.04L56.4341 23.735L56.4398 23.7291L56.4454 23.7232L55.7152 23.04ZM55.7152 33.3L54.9742 33.9715L54.9795 33.9774L54.9849 33.9832L55.7152 33.3ZM64.4152 33.3L63.6966 32.6046L63.6907 32.6107L63.6849 32.6168L64.4152 33.3ZM42.9752 28.14C42.9752 24.7784 43.5738 21.891 44.7378 19.4505L42.9326 18.5895C41.6165 21.349 40.9752 24.5416 40.9752 28.14H42.9752ZM44.7323 19.4617C45.9429 17.0028 47.5489 15.1491 49.5391 13.8591L48.4513 12.1808C46.1214 13.6909 44.2874 15.8372 42.938 18.5783L44.7323 19.4617ZM49.532 13.8637C51.5669 12.5687 53.8198 11.92 56.3152 11.92V9.92C53.4505 9.92 50.8234 10.6713 48.4583 12.1763L49.532 13.8637ZM56.3152 11.92C58.5025 11.92 60.3302 12.3531 61.8348 13.1771L62.7955 11.4229C60.9401 10.4069 58.7678 9.92 56.3152 9.92V11.92ZM61.8348 13.1771C63.3664 14.0158 64.5306 15.1321 65.3538 16.528L67.0765 15.512C66.0597 13.7879 64.6239 12.4242 62.7955 11.4229L61.8348 13.1771ZM67.2152 16.02V11.34H65.2152V16.02H67.2152ZM66.2152 12.34H77.9752V10.34H66.2152V12.34ZM76.9752 11.34V45H78.9752V11.34H76.9752ZM77.9752 44H66.2152V46H77.9752V44ZM67.2152 45V40.32H65.2152V45H67.2152ZM65.3538 39.812C64.5341 41.2019 63.3547 42.3178 61.7835 43.1582L62.7268 44.9218C64.5956 43.9222 66.0562 42.5581 67.0765 40.828L65.3538 39.812ZM61.7748 43.1629C60.2678 43.9882 58.4592 44.42 56.3152 44.42V46.42C58.7311 46.42 60.8826 45.9318 62.7355 44.9171L61.7748 43.1629ZM56.3152 44.42C53.8198 44.42 51.5669 43.7713 49.532 42.4763L48.4583 44.1637C50.8234 45.6687 53.4505 46.42 56.3152 46.42V44.42ZM49.5391 42.4808C47.5489 41.1909 45.9429 39.3372 44.7323 36.8783L42.938 37.7617C44.2874 40.5028 46.1214 42.6491 48.4513 44.1592L49.5391 42.4808ZM44.7403 36.8949C43.5737 34.4111 42.9752 31.5011 42.9752 28.14H40.9752C40.9752 31.7389 41.6166 34.9489 42.93 37.7451L44.7403 36.8949ZM67.2152 28.14C67.2152 25.7891 66.5569 23.8152 65.1338 22.3446L63.6966 23.7354C64.6734 24.7448 65.2152 26.1709 65.2152 28.14H67.2152ZM65.1454 22.3568C63.7936 20.9118 62.0879 20.18 60.0952 20.18V22.18C61.5424 22.18 62.7167 22.6882 63.6849 23.7232L65.1454 22.3568ZM60.0952 20.18C58.0698 20.18 56.3416 20.9065 54.9849 22.3568L56.4454 23.7232C57.4087 22.6935 58.6005 22.18 60.0952 22.18V20.18ZM54.9962 22.345C53.6043 23.7848 52.9752 25.7658 52.9752 28.14H54.9752C54.9752 26.1142 55.506 24.6952 56.4341 23.735L54.9962 22.345ZM52.9752 28.14C52.9752 30.4835 53.6086 32.4647 54.9742 33.9715L56.4561 32.6285C55.5017 31.5753 54.9752 30.1165 54.9752 28.14H52.9752ZM54.9849 33.9832C56.3416 35.4335 58.0698 36.16 60.0952 36.16V34.16C58.6005 34.16 57.4087 33.6465 56.4454 32.6168L54.9849 33.9832ZM60.0952 36.16C62.0879 36.16 63.7936 35.4282 65.1454 33.9832L63.6849 32.6168C62.7167 33.6518 61.5424 34.16 60.0952 34.16V36.16ZM65.1338 33.9954C66.5602 32.5215 67.2152 30.525 67.2152 28.14H65.2152C65.2152 30.155 64.6702 31.5985 63.6966 32.6046L65.1338 33.9954ZM96.4364 16.02H95.4364V19.7653L97.3033 16.5185L96.4364 16.02ZM100.336 12.3L100.8 13.1858L100.809 13.1815L100.817 13.1771L100.336 12.3ZM113.536 13.02L112.992 13.8592L113 13.8637L113.536 13.02ZM118.696 19.02L117.794 19.4505L117.799 19.4617L118.696 19.02ZM118.696 37.32L117.797 36.8837L117.794 36.8895L118.696 37.32ZM113.536 43.32L113 42.4763L112.993 42.4808L113.536 43.32ZM100.336 44.1L99.8561 44.9771L99.8642 44.9815L99.8724 44.9858L100.336 44.1ZM96.4364 40.32L97.3033 39.8215L95.4364 36.5747V40.32H96.4364ZM96.4364 45V46H97.4364V45H96.4364ZM84.6764 45H83.6764V46H84.6764V45ZM84.6764 0.599999V-0.400001H83.6764V0.599999H84.6764ZM96.4364 0.599999H97.4364V-0.400001H96.4364V0.599999ZM106.876 23.04L106.146 23.7232L106.158 23.7353L106.169 23.7471L106.876 23.04ZM98.1764 23.04L97.4578 22.3446L97.4519 22.3507L97.4461 22.3568L98.1764 23.04ZM98.1764 33.3L97.4461 33.9832L97.4519 33.9893L97.4578 33.9954L98.1764 33.3ZM106.876 33.3L106.147 32.6161L106.146 32.6168L106.876 33.3ZM97.3033 16.5185C98.1258 15.088 99.2839 13.9802 100.8 13.1858L99.8724 11.4142C98.0289 12.3798 96.587 13.752 95.5695 15.5215L97.3033 16.5185ZM100.817 13.1771C102.324 12.3518 104.132 11.92 106.276 11.92V9.92C103.86 9.92 101.709 10.4082 99.8561 11.4229L100.817 13.1771ZM106.276 11.92C108.772 11.92 111.001 12.5686 112.993 13.8591L114.08 12.1808C111.751 10.6714 109.141 9.92 106.276 9.92V11.92ZM113 13.8637C115.025 15.1526 116.626 17.0015 117.794 19.4505L119.599 18.5895C118.287 15.8385 116.448 13.6874 114.073 12.1763L113 13.8637ZM117.799 19.4617C118.999 21.8994 119.616 24.7828 119.616 28.14H121.616C121.616 24.5372 120.953 21.3406 119.594 18.5783L117.799 19.4617ZM119.616 28.14C119.616 31.4968 118.999 34.4027 117.797 36.8837L119.596 37.7563C120.953 34.9572 121.616 31.7432 121.616 28.14H119.616ZM117.794 36.8895C116.626 39.3385 115.025 41.1874 113 42.4763L114.073 44.1637C116.448 42.6526 118.287 40.5015 119.599 37.7505L117.794 36.8895ZM112.993 42.4808C111.001 43.7714 108.772 44.42 106.276 44.42V46.42C109.141 46.42 111.751 45.6686 114.08 44.1592L112.993 42.4808ZM106.276 44.42C104.126 44.42 102.311 44.0054 100.8 43.2142L99.8724 44.9858C101.722 45.9546 103.867 46.42 106.276 46.42V44.42ZM100.817 43.2229C99.2915 42.3877 98.1281 41.256 97.3033 39.8215L95.5695 40.8185C96.5847 42.584 98.0213 43.9723 99.8561 44.9771L100.817 43.2229ZM95.4364 40.32V45H97.4364V40.32H95.4364ZM96.4364 44H84.6764V46H96.4364V44ZM85.6764 45V0.599999H83.6764V45H85.6764ZM84.6764 1.6H96.4364V-0.400001H84.6764V1.6ZM95.4364 0.599999V16.02H97.4364V0.599999H95.4364ZM109.676 28.14C109.676 25.7568 109.022 23.7714 107.584 22.3329L106.169 23.7471C107.131 24.7086 107.676 26.1232 107.676 28.14H109.676ZM107.607 22.3568C106.255 20.9118 104.549 20.18 102.556 20.18V22.18C104.004 22.18 105.178 22.6882 106.146 23.7232L107.607 22.3568ZM102.556 20.18C100.565 20.18 98.8455 20.9106 97.4578 22.3446L98.895 23.7354C99.9073 22.6894 101.108 22.18 102.556 22.18V20.18ZM97.4461 22.3568C96.0693 23.8286 95.4364 25.7981 95.4364 28.14H97.4364C97.4364 26.1619 97.9635 24.7314 98.9067 23.7232L97.4461 22.3568ZM95.4364 28.14C95.4364 30.5162 96.0663 32.5082 97.4461 33.9832L98.9067 32.6168C97.9665 31.6118 97.4364 30.1638 97.4364 28.14H95.4364ZM97.4578 33.9954C98.8455 35.4294 100.565 36.16 102.556 36.16V34.16C101.108 34.16 99.9073 33.6506 98.895 32.6046L97.4578 33.9954ZM102.556 36.16C104.549 36.16 106.255 35.4282 107.607 33.9832L106.146 32.6168C105.178 33.6518 104.004 34.16 102.556 34.16V36.16ZM107.606 33.9839C109.018 32.478 109.676 30.4923 109.676 28.14H107.676C107.676 30.1077 107.135 31.562 106.147 32.6161L107.606 33.9839ZM159.898 11.34H160.898V10.34H159.898V11.34ZM159.898 45V46H160.898V45H159.898ZM148.078 45H147.078V46H148.078V45ZM148.078 40.2H149.078V36.8605L147.242 39.6504L148.078 40.2ZM143.938 43.92L144.401 44.8062L144.409 44.8021L144.417 44.7979L143.938 43.92ZM128.578 41.46L127.82 42.1127L127.825 42.1189L127.831 42.1251L128.578 41.46ZM125.218 11.34V10.34H124.218V11.34H125.218ZM136.918 11.34H137.918V10.34H136.918V11.34ZM138.418 33.96L137.672 34.626L137.684 34.6401L137.697 34.6536L138.418 33.96ZM146.578 33.96L147.311 34.6394L147.318 34.6328L147.324 34.626L146.578 33.96ZM148.078 11.34V10.34H147.078V11.34H148.078ZM158.898 11.34V45H160.898V11.34H158.898ZM159.898 44H148.078V46H159.898V44ZM149.078 45V40.2H147.078V45H149.078ZM147.242 39.6504C146.341 41.0198 145.09 42.1525 143.459 43.0421L144.417 44.7979C146.306 43.7675 147.814 42.4202 148.913 40.7496L147.242 39.6504ZM143.474 43.0338C141.877 43.8686 140.02 44.3 137.878 44.3V46.3C140.295 46.3 142.478 45.8114 144.401 44.8062L143.474 43.0338ZM137.878 44.3C134.198 44.3 131.386 43.1102 129.324 40.7949L127.831 42.1251C130.329 44.9298 133.718 46.3 137.878 46.3V44.3ZM129.335 40.8073C127.293 38.4367 126.218 35.1723 126.218 30.9H124.218C124.218 35.5077 125.382 39.2833 127.82 42.1127L129.335 40.8073ZM126.218 30.9V11.34H124.218V30.9H126.218ZM125.218 12.34H136.918V10.34H125.218V12.34ZM135.918 11.34V29.4H137.918V11.34H135.918ZM135.918 29.4C135.918 31.4951 136.467 33.2762 137.672 34.626L139.164 33.294C138.369 32.4038 137.918 31.1449 137.918 29.4H135.918ZM137.697 34.6536C138.949 35.9539 140.582 36.58 142.498 36.58V34.58C141.053 34.58 139.966 34.1261 139.138 33.2664L137.697 34.6536ZM142.498 36.58C144.445 36.58 146.09 35.9586 147.311 34.6394L145.844 33.2806C145.065 34.1214 143.99 34.58 142.498 34.58V36.58ZM147.324 34.626C148.529 33.2762 149.078 31.4951 149.078 29.4H147.078C147.078 31.1449 146.626 32.4038 145.832 33.294L147.324 34.626ZM149.078 29.4V11.34H147.078V29.4H149.078ZM148.078 12.34H159.898V10.34H148.078V12.34ZM178.35 16.02H177.35V19.6842L179.212 16.528L178.35 16.02ZM182.25 12.3L181.77 11.4229L182.25 12.3ZM195.45 13.02L194.907 13.8592L194.914 13.8637L195.45 13.02ZM200.61 19.02L199.708 19.4505L199.713 19.4617L200.61 19.02ZM200.61 37.32L199.711 36.8837L199.708 36.8895L200.61 37.32ZM195.45 43.32L194.914 42.4763L194.907 42.4808L195.45 43.32ZM182.25 44.04L181.761 44.9122L181.77 44.9171L182.25 44.04ZM178.35 40.32L179.202 39.7959L177.35 36.787V40.32H178.35ZM178.35 61.08V62.08H179.35V61.08H178.35ZM166.59 61.08H165.59V62.08H166.59V61.08ZM166.59 11.34V10.34H165.59V11.34H166.59ZM178.35 11.34H179.35V10.34H178.35V11.34ZM188.79 23.04L188.06 23.7232L188.072 23.7353L188.083 23.7471L188.79 23.04ZM180.09 23.04L179.372 22.3446L179.366 22.3507L179.36 22.3568L180.09 23.04ZM180.09 33.3L179.36 33.9832L179.366 33.9893L179.372 33.9954L180.09 33.3ZM188.79 33.3L188.061 32.6161L188.06 32.6168L188.79 33.3ZM179.212 16.528C180.035 15.1321 181.199 14.0158 182.731 13.1771L181.77 11.4229C179.942 12.4242 178.506 13.7879 177.489 15.512L179.212 16.528ZM182.731 13.1771C184.238 12.3518 186.046 11.92 188.19 11.92V9.92C185.775 9.92 183.623 10.4082 181.77 11.4229L182.731 13.1771ZM188.19 11.92C190.686 11.92 192.915 12.5686 194.907 13.8591L195.994 12.1808C193.665 10.6714 191.055 9.92 188.19 9.92V11.92ZM194.914 13.8637C196.939 15.1526 198.54 17.0015 199.708 19.4505L201.513 18.5895C200.201 15.8385 198.362 13.6874 195.987 12.1763L194.914 13.8637ZM199.713 19.4617C200.913 21.8994 201.53 24.7828 201.53 28.14H203.53C203.53 24.5372 202.868 21.3406 201.508 18.5783L199.713 19.4617ZM201.53 28.14C201.53 31.4968 200.914 34.4027 199.711 36.8837L201.51 37.7563C202.867 34.9572 203.53 31.7432 203.53 28.14H201.53ZM199.708 36.8895C198.54 39.3385 196.939 41.1874 194.914 42.4763L195.987 44.1637C198.362 42.6526 200.201 40.5015 201.513 37.7505L199.708 36.8895ZM194.907 42.4808C192.915 43.7714 190.686 44.42 188.19 44.42V46.42C191.055 46.42 193.665 45.6686 195.994 44.1592L194.907 42.4808ZM188.19 44.42C186.046 44.42 184.238 43.9882 182.731 43.1629L181.77 44.9171C183.623 45.9318 185.775 46.42 188.19 46.42V44.42ZM182.74 43.1679C181.244 42.3288 180.07 41.207 179.202 39.7959L177.499 40.8441C178.55 42.553 179.977 43.9112 181.761 44.9121L182.74 43.1679ZM177.35 40.32V61.08H179.35V40.32H177.35ZM178.35 60.08H166.59V62.08H178.35V60.08ZM167.59 61.08V11.34H165.59V61.08H167.59ZM166.59 12.34H178.35V10.34H166.59V12.34ZM177.35 11.34V16.02H179.35V11.34H177.35ZM191.59 28.14C191.59 25.7568 190.936 23.7714 189.498 22.3329L188.083 23.7471C189.045 24.7086 189.59 26.1232 189.59 28.14H191.59ZM189.521 22.3568C188.169 20.9118 186.463 20.18 184.47 20.18V22.18C185.918 22.18 187.092 22.6882 188.06 23.7232L189.521 22.3568ZM184.47 20.18C182.479 20.18 180.76 20.9106 179.372 22.3446L180.809 23.7354C181.821 22.6894 183.022 22.18 184.47 22.18V20.18ZM179.36 22.3568C177.983 23.8286 177.35 25.7981 177.35 28.14H179.35C179.35 26.1619 179.878 24.7314 180.821 23.7232L179.36 22.3568ZM177.35 28.14C177.35 30.5162 177.98 32.5082 179.36 33.9832L180.821 32.6168C179.881 31.6118 179.35 30.1638 179.35 28.14H177.35ZM179.372 33.9954C180.76 35.4294 182.479 36.16 184.47 36.16V34.16C183.022 34.16 181.821 33.6506 180.809 32.6046L179.372 33.9954ZM184.47 36.16C186.463 36.16 188.169 35.4282 189.521 33.9832L188.06 32.6168C187.092 33.6518 185.918 34.16 184.47 34.16V36.16ZM189.52 33.9839C190.932 32.478 191.59 30.4923 191.59 28.14H189.59C189.59 30.1077 189.049 31.562 188.061 32.6161L189.52 33.9839ZM207.312 19.02L206.414 18.5783L206.409 18.5895L207.312 19.02ZM212.472 13.02L211.935 12.1763L211.928 12.1808L212.472 13.02ZM225.792 12.3L225.311 13.1771L225.792 12.3ZM229.692 16.02L228.83 16.528L230.692 19.6842V16.02H229.692ZM229.692 11.34V10.34H228.692V11.34H229.692ZM241.452 11.34H242.452V10.34H241.452V11.34ZM241.452 45V46H242.452V45H241.452ZM229.692 45H228.692V46H229.692V45ZM229.692 40.32H230.692V36.6558L228.83 39.812L229.692 40.32ZM225.732 44.04L225.26 43.1582L225.251 43.1629L225.732 44.04ZM212.472 43.32L211.928 44.1592L211.935 44.1637L212.472 43.32ZM207.312 37.32L206.407 37.7451L206.41 37.7534L206.415 37.7617L207.312 37.32ZM227.892 23.04L227.161 23.7232L227.167 23.7293L227.173 23.7354L227.892 23.04ZM219.192 23.04L219.911 23.735L219.916 23.7291L219.922 23.7232L219.192 23.04ZM219.192 33.3L218.451 33.9715L218.456 33.9774L218.461 33.9832L219.192 33.3ZM227.892 33.3L227.173 32.6046L227.167 32.6107L227.161 32.6168L227.892 33.3ZM206.452 28.14C206.452 24.7784 207.05 21.891 208.214 19.4505L206.409 18.5895C205.093 21.349 204.452 24.5416 204.452 28.14H206.452ZM208.209 19.4617C209.419 17.0028 211.025 15.1491 213.016 13.8591L211.928 12.1808C209.598 13.6909 207.764 15.8372 206.415 18.5783L208.209 19.4617ZM213.009 13.8637C215.044 12.5687 217.296 11.92 219.792 11.92V9.92C216.927 9.92 214.3 10.6713 211.935 12.1763L213.009 13.8637ZM219.792 11.92C221.979 11.92 223.807 12.3531 225.311 13.1771L226.272 11.4229C224.417 10.4069 222.244 9.92 219.792 9.92V11.92ZM225.311 13.1771C226.843 14.0158 228.007 15.1321 228.83 16.528L230.553 15.512C229.536 13.7879 228.1 12.4242 226.272 11.4229L225.311 13.1771ZM230.692 16.02V11.34H228.692V16.02H230.692ZM229.692 12.34H241.452V10.34H229.692V12.34ZM240.452 11.34V45H242.452V11.34H240.452ZM241.452 44H229.692V46H241.452V44ZM230.692 45V40.32H228.692V45H230.692ZM228.83 39.812C228.011 41.2019 226.831 42.3178 225.26 43.1582L226.203 44.9218C228.072 43.9222 229.533 42.5581 230.553 40.828L228.83 39.812ZM225.251 43.1629C223.744 43.9882 221.936 44.42 219.792 44.42V46.42C222.208 46.42 224.359 45.9318 226.212 44.9171L225.251 43.1629ZM219.792 44.42C217.296 44.42 215.044 43.7713 213.009 42.4763L211.935 44.1637C214.3 45.6687 216.927 46.42 219.792 46.42V44.42ZM213.016 42.4808C211.025 41.1909 209.419 39.3372 208.209 36.8783L206.415 37.7617C207.764 40.5028 209.598 42.6491 211.928 44.1592L213.016 42.4808ZM208.217 36.8949C207.05 34.4111 206.452 31.5011 206.452 28.14H204.452C204.452 31.7389 205.093 34.9489 206.407 37.7451L208.217 36.8949ZM230.692 28.14C230.692 25.7891 230.033 23.8152 228.61 22.3446L227.173 23.7354C228.15 24.7448 228.692 26.1709 228.692 28.14H230.692ZM228.622 22.3568C227.27 20.9118 225.564 20.18 223.572 20.18V22.18C225.019 22.18 226.193 22.6882 227.161 23.7232L228.622 22.3568ZM223.572 20.18C221.546 20.18 219.818 20.9065 218.461 22.3568L219.922 23.7232C220.885 22.6935 222.077 22.18 223.572 22.18V20.18ZM218.473 22.345C217.081 23.7848 216.452 25.7658 216.452 28.14H218.452C218.452 26.1142 218.983 24.6952 219.911 23.735L218.473 22.345ZM216.452 28.14C216.452 30.4835 217.085 32.4647 218.451 33.9715L219.933 32.6285C218.978 31.5753 218.452 30.1165 218.452 28.14H216.452ZM218.461 33.9832C219.818 35.4335 221.546 36.16 223.572 36.16V34.16C222.077 34.16 220.885 33.6465 219.922 32.6168L218.461 33.9832ZM223.572 36.16C225.564 36.16 227.27 35.4282 228.622 33.9832L227.161 32.6168C226.193 33.6518 225.019 34.16 223.572 34.16V36.16ZM228.61 33.9954C230.037 32.5215 230.692 30.525 230.692 28.14H228.692C228.692 30.155 228.147 31.5985 227.173 32.6046L228.61 33.9954ZM268.013 34.98H269.013V33.98H268.013V34.98ZM268.013 45V46H269.013V45H268.013ZM250.013 21.12H251.013V20.12H250.013V21.12ZM245.873 21.12H244.873V22.12H245.873V21.12ZM245.873 11.34V10.34H244.873V11.34H245.873ZM250.013 11.34V12.34H251.013V11.34H250.013ZM250.013 3.18V2.18H249.013V3.18H250.013ZM261.833 3.18H262.833V2.18H261.833V3.18ZM261.833 11.34H260.833V12.34H261.833V11.34ZM267.953 11.34H268.953V10.34H267.953V11.34ZM267.953 21.12V22.12H268.953V21.12H267.953ZM261.833 21.12V20.12H260.833V21.12H261.833ZM262.433 34.38L261.726 35.0871L261.743 35.1039L261.76 35.1199L262.433 34.38ZM267.013 34.98V45H269.013V34.98H267.013ZM268.013 44H262.913V46H268.013V44ZM262.913 44C258.765 44 255.838 42.973 253.942 41.0946C252.047 39.2179 251.013 36.3235 251.013 32.22H249.013C249.013 36.6365 250.128 40.1321 252.534 42.5154C254.938 44.897 258.461 46 262.913 46V44ZM251.013 32.22V21.12H249.013V32.22H251.013ZM250.013 20.12H245.873V22.12H250.013V20.12ZM246.873 21.12V11.34H244.873V21.12H246.873ZM245.873 12.34H250.013V10.34H245.873V12.34ZM251.013 11.34V3.18H249.013V11.34H251.013ZM250.013 4.18H261.833V2.18H250.013V4.18ZM260.833 3.18V11.34H262.833V3.18H260.833ZM261.833 12.34H267.953V10.34H261.833V12.34ZM266.953 11.34V21.12H268.953V11.34H266.953ZM267.953 20.12H261.833V22.12H267.953V20.12ZM260.833 21.12V32.4H262.833V21.12H260.833ZM260.833 32.4C260.833 33.4265 261.05 34.4112 261.726 35.0871L263.14 33.6729C263.016 33.5488 262.833 33.2135 262.833 32.4H260.833ZM261.76 35.1199C262.475 35.7694 263.502 35.98 264.593 35.98V33.98C263.684 33.98 263.271 33.7906 263.106 33.6401L261.76 35.1199ZM264.593 35.98H268.013V33.98H264.593V35.98ZM305.387 30.54V31.54H306.265L306.378 30.6693L305.387 30.54ZM283.127 30.54V29.54H282.06L282.129 30.6051L283.127 30.54ZM284.627 34.68L283.904 35.3712L283.92 35.3873L283.936 35.4026L284.627 34.68ZM292.307 33.36V32.36H291.676L291.404 32.9293L292.307 33.36ZM304.847 33.36L305.823 33.5787L306.096 32.36H304.847V33.36ZM301.787 39.6L301.016 38.9631L301.014 38.9649L301.787 39.6ZM296.147 43.86L296.562 44.7698L296.147 43.86ZM279.707 43.32L279.227 44.1974L279.233 44.2005L279.707 43.32ZM273.647 37.32L272.772 37.8045L272.778 37.8147L273.647 37.32ZM273.647 19.02L274.518 19.5103L274.522 19.5045L273.647 19.02ZM279.647 13.02L279.173 12.1395L279.167 12.1426L279.647 13.02ZM297.407 12.96L297.876 12.0769L297.407 12.96ZM303.407 18.84L302.535 19.3303L302.539 19.3361L303.407 18.84ZM293.567 24.84V25.84H294.567V24.84H293.567ZM292.127 21.48L291.468 22.2326L291.477 22.2405L291.487 22.2482L292.127 21.48ZM284.987 21.42L285.624 22.191L285.634 22.1829L285.643 22.1746L284.987 21.42ZM283.187 24.84L282.203 24.6588L281.986 25.84H283.187V24.84ZM304.567 27.78C304.567 28.6564 304.51 29.5332 304.395 30.4107L306.378 30.6693C306.504 29.7068 306.567 28.7436 306.567 27.78H304.567ZM305.387 29.54H283.127V31.54H305.387V29.54ZM282.129 30.6051C282.258 32.5769 282.802 34.2194 283.904 35.3712L285.35 33.9888C284.691 33.3006 284.236 32.1831 284.125 30.4749L282.129 30.6051ZM283.936 35.4026C285.061 36.4791 286.477 37 288.107 37V35C286.936 35 286.033 34.6409 285.318 33.9574L283.936 35.4026ZM288.107 37C289.24 37 290.272 36.7441 291.159 36.1866C292.046 35.629 292.723 34.8105 293.209 33.7907L291.404 32.9293C291.051 33.6695 290.608 34.171 290.095 34.4934C289.582 34.8159 288.934 35 288.107 35V37ZM292.307 34.36H304.847V32.36H292.307V34.36ZM303.871 33.1413C303.386 35.3071 302.436 37.244 301.016 38.9631L302.558 40.2369C304.178 38.276 305.268 36.0529 305.823 33.5787L303.871 33.1413ZM301.014 38.9649C299.638 40.6386 297.884 41.9685 295.732 42.9502L296.562 44.7698C298.97 43.6715 300.975 42.1614 302.559 40.2351L301.014 38.9649ZM295.732 42.9502C293.595 43.925 291.218 44.42 288.587 44.42V46.42C291.475 46.42 294.139 45.875 296.562 44.7698L295.732 42.9502ZM288.587 44.42C285.411 44.42 282.618 43.7517 280.181 42.4395L279.233 44.2005C281.996 45.6883 285.122 46.42 288.587 46.42V44.42ZM280.187 42.4426C277.794 41.134 275.907 39.2684 274.516 36.8253L272.778 37.8147C274.347 40.5716 276.5 42.706 279.227 44.1974L280.187 42.4426ZM274.522 36.8355C273.178 34.4089 272.487 31.5218 272.487 28.14H270.487C270.487 31.7982 271.236 35.0311 272.772 37.8045L274.522 36.8355ZM272.487 28.14C272.487 24.7577 273.178 21.8935 274.518 19.5103L272.775 18.5297C271.236 21.2665 270.487 24.4823 270.487 28.14H272.487ZM274.522 19.5045C275.872 17.067 277.736 15.2047 280.127 13.8974L279.167 12.1426C276.438 13.6353 274.302 15.773 272.772 18.5355L274.522 19.5045ZM280.121 13.9005C282.556 12.5892 285.369 11.92 288.587 11.92V9.92C285.084 9.92 281.938 10.6508 279.173 12.1395L280.121 13.9005ZM288.587 11.92C291.767 11.92 294.542 12.5704 296.938 13.8431L297.876 12.0769C295.152 10.6296 292.047 9.92 288.587 9.92V11.92ZM296.938 13.8431C299.326 15.1121 301.188 16.9347 302.535 19.3303L304.278 18.3497C302.746 15.6253 300.607 13.5279 297.876 12.0769L296.938 13.8431ZM302.539 19.3361C303.878 21.6792 304.567 24.4817 304.567 27.78H306.567C306.567 24.1983 305.816 21.0408 304.275 18.3439L302.539 19.3361ZM294.567 24.84C294.567 23.1537 293.991 21.7319 292.767 20.7118L291.487 22.2482C292.183 22.8281 292.567 23.6463 292.567 24.84H294.567ZM292.785 20.7274C291.619 19.7072 290.176 19.22 288.527 19.22V21.22C289.758 21.22 290.714 21.5728 291.468 22.2326L292.785 20.7274ZM288.527 19.22C286.892 19.22 285.465 19.6794 284.331 20.6654L285.643 22.1746C286.349 21.5606 287.282 21.22 288.527 21.22V19.22ZM284.35 20.649C283.201 21.5983 282.513 22.9771 282.203 24.6588L284.17 25.0212C284.421 23.6629 284.933 22.7617 285.624 22.191L284.35 20.649ZM283.187 25.84H293.567V23.84H283.187V25.84ZM341.64 14.94L340.888 15.5993L340.893 15.6051L341.64 14.94ZM345.06 45V46H346.06V45H345.06ZM333.3 45H332.3V46H333.3V45ZM331.8 22.44L331.054 23.106L331.06 23.1128L331.066 23.1194L331.8 22.44ZM323.64 22.44L324.373 23.1194L324.379 23.1128L324.385 23.106L323.64 22.44ZM322.14 45V46H323.14V45H322.14ZM310.38 45H309.38V46H310.38V45ZM310.38 11.34V10.34H309.38V11.34H310.38ZM322.14 11.34H323.14V10.34H322.14V11.34ZM322.14 16.14H321.14V19.3724L322.965 16.7047L322.14 16.14ZM326.34 12.48L326.803 13.3662L326.811 13.3621L326.818 13.3579L326.34 12.48ZM332.4 12.04C336.031 12.04 338.822 13.2437 340.888 15.5993L342.391 14.2807C339.897 11.4363 336.528 10.04 332.4 10.04V12.04ZM340.893 15.6051C342.968 17.9348 344.06 21.1537 344.06 25.38H346.06C346.06 20.8063 344.871 17.0652 342.386 14.2749L340.893 15.6051ZM344.06 25.38V45H346.06V25.38H344.06ZM345.06 44H333.3V46H345.06V44ZM334.3 45V26.94H332.3V45H334.3ZM334.3 26.94C334.3 24.847 333.751 23.0762 332.533 21.7606L331.066 23.1194C331.848 23.9638 332.3 25.193 332.3 26.94H334.3ZM332.545 21.774C331.332 20.4149 329.707 19.76 327.78 19.76V21.76C329.212 21.76 330.267 22.2251 331.054 23.106L332.545 21.774ZM327.78 19.76C325.789 19.76 324.116 20.4044 322.894 21.774L324.385 23.106C325.163 22.2356 326.251 21.76 327.78 21.76V19.76ZM322.906 21.7606C321.688 23.0762 321.14 24.847 321.14 26.94H323.14C323.14 25.193 323.591 23.9638 324.373 23.1194L322.906 21.7606ZM321.14 26.94V45H323.14V26.94H321.14ZM322.14 44H310.38V46H322.14V44ZM311.38 45V11.34H309.38V45H311.38ZM310.38 12.34H322.14V10.34H310.38V12.34ZM321.14 11.34V16.14H323.14V11.34H321.14ZM322.965 16.7047C323.905 15.3304 325.176 14.2164 326.803 13.3662L325.876 11.5938C323.983 12.5836 322.454 13.9096 321.314 15.5753L322.965 16.7047ZM326.818 13.3579C328.412 12.4885 330.264 12.04 332.4 12.04V10.04C329.975 10.04 327.787 10.5515 325.861 11.6021L326.818 13.3579ZM374.757 36H373.757V37H374.757V36ZM387.897 36H388.897V35H387.897V36ZM387.897 45V46H388.897V45H387.897ZM362.997 45H361.997V46H362.997V45ZM362.997 2.7V1.7H361.997V2.7H362.997ZM374.757 2.7H375.757V1.7H374.757V2.7ZM374.757 37H387.897V35H374.757V37ZM386.897 36V45H388.897V36H386.897ZM387.897 44H362.997V46H387.897V44ZM363.997 45V2.7H361.997V45H363.997ZM362.997 3.7H374.757V1.7H362.997V3.7ZM373.757 2.7V36H375.757V2.7H373.757ZM426.909 11.34H427.909V10.34H426.909V11.34ZM426.909 45V46H427.909V45H426.909ZM415.089 45H414.089V46H415.089V45ZM415.089 40.2H416.089V36.8605L414.254 39.6504L415.089 40.2ZM410.949 43.92L411.413 44.8062L411.42 44.8021L411.428 44.7979L410.949 43.92ZM395.589 41.46L394.832 42.1127L394.837 42.1189L394.843 42.1251L395.589 41.46ZM392.229 11.34V10.34H391.229V11.34H392.229ZM403.929 11.34H404.929V10.34H403.929V11.34ZM405.429 33.96L404.683 34.626L404.696 34.6401L404.709 34.6536L405.429 33.96ZM413.589 33.96L414.323 34.6394L414.329 34.6328L414.335 34.626L413.589 33.96ZM415.089 11.34V10.34H414.089V11.34H415.089ZM425.909 11.34V45H427.909V11.34H425.909ZM426.909 44H415.089V46H426.909V44ZM416.089 45V40.2H414.089V45H416.089ZM414.254 39.6504C413.353 41.0198 412.102 42.1525 410.471 43.0421L411.428 44.7979C413.317 43.7675 414.826 42.4202 415.925 40.7496L414.254 39.6504ZM410.486 43.0338C408.889 43.8686 407.032 44.3 404.889 44.3V46.3C407.307 46.3 409.49 45.8114 411.413 44.8062L410.486 43.0338ZM404.889 44.3C401.209 44.3 398.398 43.1102 396.336 40.7949L394.843 42.1251C397.341 44.9298 400.729 46.3 404.889 46.3V44.3ZM396.347 40.8073C394.305 38.4367 393.229 35.1723 393.229 30.9H391.229C391.229 35.5077 392.394 39.2833 394.832 42.1127L396.347 40.8073ZM393.229 30.9V11.34H391.229V30.9H393.229ZM392.229 12.34H403.929V10.34H392.229V12.34ZM402.929 11.34V29.4H404.929V11.34H402.929ZM402.929 29.4C402.929 31.4951 403.478 33.2762 404.683 34.626L406.175 33.294C405.381 32.4038 404.929 31.1449 404.929 29.4H402.929ZM404.709 34.6536C405.961 35.9539 407.594 36.58 409.509 36.58V34.58C408.065 34.58 406.978 34.1261 406.15 33.2664L404.709 34.6536ZM409.509 36.58C411.457 36.58 413.102 35.9586 414.323 34.6394L412.856 33.2806C412.077 34.1214 411.002 34.58 409.509 34.58V36.58ZM414.335 34.626C415.541 33.2762 416.089 31.4951 416.089 29.4H414.089C414.089 31.1449 413.638 32.4038 412.843 33.294L414.335 34.626ZM416.089 29.4V11.34H414.089V29.4H416.089ZM415.089 12.34H426.909V10.34H415.089V12.34ZM483.342 11.34L484.311 11.587L484.629 10.34H483.342V11.34ZM474.762 45V46H475.539L475.731 45.247L474.762 45ZM461.562 45L460.587 45.2236L460.766 46H461.562V45ZM456.882 24.6L457.857 24.3764L455.909 24.3682L456.882 24.6ZM452.022 45V46H452.812L452.995 45.2318L452.022 45ZM438.882 45L437.913 45.2454L438.104 46H438.882V45ZM430.362 11.34V10.34H429.078L429.393 11.5854L430.362 11.34ZM442.062 11.34L443.048 11.173L442.907 10.34H442.062V11.34ZM445.842 33.66L444.856 33.827L446.818 33.8778L445.842 33.66ZM450.822 11.34V10.34H450.021L449.846 11.1222L450.822 11.34ZM463.422 11.34L464.397 11.1153L464.218 10.34H463.422V11.34ZM468.582 33.72L467.608 33.9447L469.569 33.884L468.582 33.72ZM472.302 11.34V10.34H471.455L471.316 11.176L472.302 11.34ZM482.373 11.093L473.793 44.753L475.731 45.247L484.311 11.587L482.373 11.093ZM474.762 44H461.562V46H474.762V44ZM462.537 44.7764L457.857 24.3764L455.908 24.8236L460.587 45.2236L462.537 44.7764ZM455.909 24.3682L451.049 44.7682L452.995 45.2318L457.855 24.8317L455.909 24.3682ZM452.022 44H438.882V46H452.022V44ZM439.852 44.7546L431.332 11.0946L429.393 11.5854L437.913 45.2454L439.852 44.7546ZM430.362 12.34H442.062V10.34H430.362V12.34ZM441.076 11.507L444.856 33.827L446.828 33.493L443.048 11.173L441.076 11.507ZM446.818 33.8778L451.798 11.5578L449.846 11.1222L444.866 33.4422L446.818 33.8778ZM450.822 12.34H463.422V10.34H450.822V12.34ZM462.448 11.5647L467.608 33.9447L469.557 33.4953L464.397 11.1153L462.448 11.5647ZM469.569 33.884L473.289 11.504L471.316 11.176L467.596 33.556L469.569 33.884ZM472.302 12.34H483.342V10.34H472.302V12.34ZM521.128 11.34H522.128V10.34H521.128V11.34ZM521.128 45V46H522.128V45H521.128ZM509.308 45H508.308V46H509.308V45ZM509.308 40.2H510.308V36.8605L508.473 39.6504L509.308 40.2ZM505.168 43.92L505.631 44.8062L505.639 44.8021L505.647 44.7979L505.168 43.92ZM489.808 41.46L489.051 42.1127L489.056 42.1189L489.061 42.1251L489.808 41.46ZM486.448 11.34V10.34H485.448V11.34H486.448ZM498.148 11.34H499.148V10.34H498.148V11.34ZM499.648 33.96L498.902 34.626L498.915 34.6401L498.928 34.6536L499.648 33.96ZM507.808 33.96L508.542 34.6394L508.548 34.6328L508.554 34.626L507.808 33.96ZM509.308 11.34V10.34H508.308V11.34H509.308ZM520.128 11.34V45H522.128V11.34H520.128ZM521.128 44H509.308V46H521.128V44ZM510.308 45V40.2H508.308V45H510.308ZM508.473 39.6504C507.572 41.0198 506.32 42.1525 504.689 43.0421L505.647 44.7979C507.536 43.7675 509.044 42.4202 510.144 40.7496L508.473 39.6504ZM504.705 43.0338C503.108 43.8686 501.251 44.3 499.108 44.3V46.3C501.525 46.3 503.709 45.8114 505.631 44.8062L504.705 43.0338ZM499.108 44.3C495.428 44.3 492.617 43.1102 490.555 40.7949L489.061 42.1251C491.559 44.9298 494.948 46.3 499.108 46.3V44.3ZM490.566 40.8073C488.523 38.4367 487.448 35.1723 487.448 30.9H485.448C485.448 35.5077 486.613 39.2833 489.051 42.1127L490.566 40.8073ZM487.448 30.9V11.34H485.448V30.9H487.448ZM486.448 12.34H498.148V10.34H486.448V12.34ZM497.148 11.34V29.4H499.148V11.34H497.148ZM497.148 29.4C497.148 31.4951 497.697 33.2762 498.902 34.626L500.394 33.294C499.599 32.4038 499.148 31.1449 499.148 29.4H497.148ZM498.928 34.6536C500.18 35.9539 501.812 36.58 503.728 36.58V34.58C502.284 34.58 501.196 34.1261 500.368 33.2664L498.928 34.6536ZM503.728 36.58C505.675 36.58 507.32 35.9586 508.542 34.6394L507.074 33.2806C506.296 34.1214 505.221 34.58 503.728 34.58V36.58ZM508.554 34.626C509.759 33.2762 510.308 31.4951 510.308 29.4H508.308C508.308 31.1449 507.857 32.4038 507.062 33.294L508.554 34.626ZM510.308 29.4V11.34H508.308V29.4H510.308ZM509.308 12.34H521.128V10.34H509.308V12.34Z" fill="#08844C" mask="url(#path-1-outside-1_232_341)"/>
</svg>
